<?xml version='1.0' encoding='utf-8'?>
<svg xmlns="http://www.w3.org/2000/svg" width="1000" height="1000" viewBox="0 0 264.58332 264.58334" version="1.1" id="svg5"> <defs id="defs2"/> <metadata id="metadata856"> </metadata> <rect style="fill:#f7f7f7;fill-opacity:1;stroke:none;stroke-width:10.5833;stroke-linecap:square;stroke-miterlimit:4;stroke-dasharray:none;stroke-opacity:1;paint-order:stroke markers fill" id="rect35197" width="264.58334" height="264.58334" x="-1.350586e-05" y="0"/> <g id="g43327" transform="matrix(0.90533786,0,0,0.90454631,272.61621,38.110542)" style="stroke-width:1.10504"/> <g id="g1168" transform="matrix(0.99546316,0,0,0.9954199,-193.29204,-56.811936)" style="stroke-width:1.00458"> <path id="path1076" style="fill:none;stroke:#4d4d4d;stroke-width:7.9739;stroke-opacity:1;paint-order:fill markers stroke" d="m 317.52338,137.05247 -34.92091,34.89037 a 0.99913198,0.99913198 90.000189 0 0 -10e-6,1.4136 l 34.92093,34.89085 a 0.41446599,0.41446599 157.48766 0 0 0.70741,-0.2932 v -23.77403 c 0,-0.55228 0.44767,-0.99305 0.99977,-0.97854 59.03244,1.55135 68.54091,52.47885 69.64957,60.25495 0.0779,0.54649 0.18317,0.54742 0.23881,-0.002 0.93375,-9.22102 5.57506,-79.54921 -69.88881,-81.06264 -0.55188,-0.0111 -0.99934,-0.46367 -0.99934,-1.01595 v -24.03017 a 0.41446987,0.41446987 22.512533 0 0 -0.70742,-0.2932 z"/> <path id="path1078" style="fill:none;fill-opacity:1;stroke:#0573e1;stroke-width:7.97386;stroke-linecap:round;stroke-opacity:1;paint-order:fill markers stroke" d="m 300.22218,209.21832 -35.34685,-35.85653 a 1.0144193,1.0144193 90 0 1 0,-1.4243 l 35.34685,-35.85653"/> </g> </svg>